<mxfile host="app.diagrams.net" modified="2023-05-19T01:38:22.714Z" agent="Mozilla/5.0 (Windows NT 10.0; Win64; x64) AppleWebKit/537.36 (KHTML, like Gecko) Chrome/113.0.0.0 Safari/537.36" etag="57xQEu7rrllqzkI8LrOf" version="21.3.2" type="device">
  <diagram name="Page-1" id="9c096ad6-e400-ecc8-3e38-643d2caac077">
    <mxGraphModel dx="1687" dy="944" grid="1" gridSize="10" guides="1" tooltips="1" connect="1" arrows="1" fold="1" page="1" pageScale="1.5" pageWidth="1169" pageHeight="826" background="none" math="0" shadow="0">
      <root>
        <mxCell id="0" style=";html=1;" />
        <mxCell id="1" style=";html=1;" parent="0" />
        <mxCell id="Anuo1oIniI2ZOCM5eJ6V-1" value="시작 페이지&lt;br&gt;index.do" style="whiteSpace=wrap;html=1;" vertex="1" parent="1">
          <mxGeometry x="720" y="460" width="140" height="210" as="geometry" />
        </mxCell>
        <mxCell id="Anuo1oIniI2ZOCM5eJ6V-2" value="회원가입&lt;br&gt;/user/register.do" style="whiteSpace=wrap;html=1;" vertex="1" parent="1">
          <mxGeometry x="720" y="160" width="140" height="210" as="geometry" />
        </mxCell>
        <mxCell id="Anuo1oIniI2ZOCM5eJ6V-3" value="회원탈퇴&lt;br&gt;/user/unregister.do" style="whiteSpace=wrap;html=1;" vertex="1" parent="1">
          <mxGeometry x="960" y="160" width="140" height="210" as="geometry" />
        </mxCell>
        <mxCell id="Anuo1oIniI2ZOCM5eJ6V-4" value="로그인&lt;br&gt;/user/login.do" style="whiteSpace=wrap;html=1;" vertex="1" parent="1">
          <mxGeometry x="480" y="160" width="140" height="210" as="geometry" />
        </mxCell>
        <mxCell id="Anuo1oIniI2ZOCM5eJ6V-5" value="로그아웃&lt;br&gt;/user/logout.do" style="whiteSpace=wrap;html=1;" vertex="1" parent="1">
          <mxGeometry x="240" y="160" width="140" height="210" as="geometry" />
        </mxCell>
        <mxCell id="Anuo1oIniI2ZOCM5eJ6V-6" value="&amp;nbsp;회원정보&lt;br&gt;/user/info.do" style="whiteSpace=wrap;html=1;" vertex="1" parent="1">
          <mxGeometry x="1000" y="460" width="140" height="210" as="geometry" />
        </mxCell>
        <mxCell id="Anuo1oIniI2ZOCM5eJ6V-8" value="" style="endArrow=classic;html=1;rounded=0;exitX=0.5;exitY=0;exitDx=0;exitDy=0;entryX=0.5;entryY=1;entryDx=0;entryDy=0;" edge="1" parent="1">
          <mxGeometry width="50" height="50" relative="1" as="geometry">
            <mxPoint x="761" y="460" as="sourcePoint" />
            <mxPoint x="761" y="370" as="targetPoint" />
          </mxGeometry>
        </mxCell>
        <mxCell id="Anuo1oIniI2ZOCM5eJ6V-9" value="" style="endArrow=classic;html=1;rounded=0;exitX=0.75;exitY=1;exitDx=0;exitDy=0;entryX=0.75;entryY=0;entryDx=0;entryDy=0;" edge="1" parent="1">
          <mxGeometry width="50" height="50" relative="1" as="geometry">
            <mxPoint x="816" y="370" as="sourcePoint" />
            <mxPoint x="816" y="460" as="targetPoint" />
            <Array as="points">
              <mxPoint x="816" y="410" />
            </Array>
          </mxGeometry>
        </mxCell>
        <mxCell id="Anuo1oIniI2ZOCM5eJ6V-16" value="result" style="edgeLabel;html=1;align=center;verticalAlign=middle;resizable=0;points=[];" vertex="1" connectable="0" parent="Anuo1oIniI2ZOCM5eJ6V-9">
          <mxGeometry x="-0.3234" y="1" relative="1" as="geometry">
            <mxPoint as="offset" />
          </mxGeometry>
        </mxCell>
        <mxCell id="Anuo1oIniI2ZOCM5eJ6V-13" value="" style="endArrow=classic;html=1;rounded=0;exitX=0.822;exitY=0.002;exitDx=0;exitDy=0;exitPerimeter=0;entryX=-0.015;entryY=0.836;entryDx=0;entryDy=0;entryPerimeter=0;" edge="1" parent="1" source="Anuo1oIniI2ZOCM5eJ6V-1" target="Anuo1oIniI2ZOCM5eJ6V-3">
          <mxGeometry width="50" height="50" relative="1" as="geometry">
            <mxPoint x="840" y="460" as="sourcePoint" />
            <mxPoint x="890" y="410" as="targetPoint" />
          </mxGeometry>
        </mxCell>
        <mxCell id="Anuo1oIniI2ZOCM5eJ6V-14" value="" style="endArrow=classic;html=1;rounded=0;exitX=0.182;exitY=1.01;exitDx=0;exitDy=0;exitPerimeter=0;entryX=1.024;entryY=0.133;entryDx=0;entryDy=0;entryPerimeter=0;" edge="1" parent="1" source="Anuo1oIniI2ZOCM5eJ6V-3" target="Anuo1oIniI2ZOCM5eJ6V-1">
          <mxGeometry width="50" height="50" relative="1" as="geometry">
            <mxPoint x="940" y="460" as="sourcePoint" />
            <mxPoint x="990" y="410" as="targetPoint" />
          </mxGeometry>
        </mxCell>
        <mxCell id="Anuo1oIniI2ZOCM5eJ6V-15" value="result" style="edgeLabel;html=1;align=center;verticalAlign=middle;resizable=0;points=[];" vertex="1" connectable="0" parent="Anuo1oIniI2ZOCM5eJ6V-14">
          <mxGeometry x="-0.1828" y="2" relative="1" as="geometry">
            <mxPoint as="offset" />
          </mxGeometry>
        </mxCell>
        <mxCell id="Anuo1oIniI2ZOCM5eJ6V-17" value="" style="endArrow=classic;html=1;rounded=0;exitX=0.191;exitY=-0.007;exitDx=0;exitDy=0;exitPerimeter=0;entryX=1;entryY=1;entryDx=0;entryDy=0;" edge="1" parent="1" source="Anuo1oIniI2ZOCM5eJ6V-1" target="Anuo1oIniI2ZOCM5eJ6V-4">
          <mxGeometry width="50" height="50" relative="1" as="geometry">
            <mxPoint x="540" y="430" as="sourcePoint" />
            <mxPoint x="590" y="380" as="targetPoint" />
          </mxGeometry>
        </mxCell>
        <mxCell id="Anuo1oIniI2ZOCM5eJ6V-18" value="" style="endArrow=classic;html=1;rounded=0;exitX=0.203;exitY=-0.01;exitDx=0;exitDy=0;exitPerimeter=0;entryX=0.534;entryY=-0.015;entryDx=0;entryDy=0;entryPerimeter=0;" edge="1" parent="1">
          <mxGeometry width="50" height="50" relative="1" as="geometry">
            <mxPoint x="528.4200000000001" y="157.89999999999998" as="sourcePoint" />
            <mxPoint x="574.76" y="156.85000000000002" as="targetPoint" />
            <Array as="points">
              <mxPoint x="550" y="110" />
            </Array>
          </mxGeometry>
        </mxCell>
        <mxCell id="Anuo1oIniI2ZOCM5eJ6V-19" value="인증 처리" style="edgeLabel;html=1;align=center;verticalAlign=middle;resizable=0;points=[];" vertex="1" connectable="0" parent="Anuo1oIniI2ZOCM5eJ6V-18">
          <mxGeometry x="-0.1503" y="-2" relative="1" as="geometry">
            <mxPoint as="offset" />
          </mxGeometry>
        </mxCell>
        <mxCell id="Anuo1oIniI2ZOCM5eJ6V-20" value="" style="endArrow=classic;html=1;rounded=0;exitX=0.75;exitY=1;exitDx=0;exitDy=0;entryX=0;entryY=0;entryDx=0;entryDy=0;" edge="1" parent="1" source="Anuo1oIniI2ZOCM5eJ6V-4" target="Anuo1oIniI2ZOCM5eJ6V-1">
          <mxGeometry width="50" height="50" relative="1" as="geometry">
            <mxPoint x="590" y="370" as="sourcePoint" />
            <mxPoint x="640" y="320" as="targetPoint" />
          </mxGeometry>
        </mxCell>
        <mxCell id="Anuo1oIniI2ZOCM5eJ6V-21" value="" style="endArrow=classic;html=1;rounded=0;exitX=1;exitY=0.5;exitDx=0;exitDy=0;entryX=0;entryY=0.5;entryDx=0;entryDy=0;" edge="1" parent="1">
          <mxGeometry width="50" height="50" relative="1" as="geometry">
            <mxPoint x="860" y="560.9999999999998" as="sourcePoint" />
            <mxPoint x="1000" y="560.9999999999998" as="targetPoint" />
          </mxGeometry>
        </mxCell>
        <mxCell id="Anuo1oIniI2ZOCM5eJ6V-22" value="" style="endArrow=classic;html=1;rounded=0;exitX=0.009;exitY=0.166;exitDx=0;exitDy=0;exitPerimeter=0;entryX=0.908;entryY=1.023;entryDx=0;entryDy=0;entryPerimeter=0;" edge="1" parent="1" source="Anuo1oIniI2ZOCM5eJ6V-1" target="Anuo1oIniI2ZOCM5eJ6V-5">
          <mxGeometry width="50" height="50" relative="1" as="geometry">
            <mxPoint x="285" y="450" as="sourcePoint" />
            <mxPoint x="335" y="400" as="targetPoint" />
          </mxGeometry>
        </mxCell>
        <mxCell id="Anuo1oIniI2ZOCM5eJ6V-25" value="" style="endArrow=classic;html=1;rounded=0;exitX=0.429;exitY=1;exitDx=0;exitDy=0;exitPerimeter=0;entryX=0;entryY=0.25;entryDx=0;entryDy=0;" edge="1" parent="1" source="Anuo1oIniI2ZOCM5eJ6V-5" target="Anuo1oIniI2ZOCM5eJ6V-1">
          <mxGeometry width="50" height="50" relative="1" as="geometry">
            <mxPoint x="340" y="370" as="sourcePoint" />
            <mxPoint x="390" y="320" as="targetPoint" />
          </mxGeometry>
        </mxCell>
      </root>
    </mxGraphModel>
  </diagram>
</mxfile>
